<svg width="25" height="25" viewBox="0 0 25 25" fill="none" xmlns="http://www.w3.org/2000/svg">
<g clip-path="url(#clip0_34_205)">
<path d="M12.5001 7.4281C11.8341 7.4281 11.1745 7.55929 10.5592 7.81417C9.94383 8.06906 9.38471 8.44265 8.91374 8.91362C8.44277 9.38459 8.06918 9.9437 7.8143 10.5591C7.55941 11.1744 7.42822 11.8339 7.42822 12.5C7.42822 13.166 7.55941 13.8255 7.8143 14.4409C8.06918 15.0562 8.44277 15.6154 8.91374 16.0863C9.38471 16.5573 9.94383 16.9309 10.5592 17.1858C11.1745 17.4407 11.8341 17.5719 12.5001 17.5719C13.8452 17.5719 15.1353 17.0375 16.0865 16.0863C17.0376 15.1352 17.572 13.8451 17.572 12.5C17.572 11.1548 17.0376 9.86478 16.0865 8.91362C15.1353 7.96246 13.8452 7.4281 12.5001 7.4281ZM8.99072 12.5C8.99072 11.5692 9.36046 10.6766 10.0186 10.0185C10.6767 9.36034 11.5694 8.9906 12.5001 8.9906C13.4308 8.9906 14.3235 9.36034 14.9816 10.0185C15.6397 10.6766 16.0095 11.5692 16.0095 12.5C16.0095 13.4307 15.6397 14.3233 14.9816 14.9815C14.3235 15.6396 13.4308 16.0094 12.5001 16.0094C11.5694 16.0094 10.6767 15.6396 10.0186 14.9815C9.36046 14.3233 8.99072 13.4307 8.99072 12.5Z" fill="#A2A2A2"/>
<path d="M15.3062 2.09851C14.4828 -0.698364 10.5171 -0.698364 9.6937 2.09851L9.54683 2.59695C9.48932 2.79219 9.38885 2.97208 9.25279 3.12345C9.11673 3.27481 8.94851 3.39381 8.76048 3.47172C8.57246 3.54963 8.36938 3.58447 8.16613 3.57369C7.96288 3.56292 7.76463 3.5068 7.58589 3.40945L7.12964 3.15945C4.56714 1.7657 1.76558 4.56882 3.16089 7.12976L3.40933 7.58601C3.50668 7.76475 3.5628 7.96301 3.57357 8.16625C3.58435 8.3695 3.5495 8.57258 3.4716 8.76061C3.39369 8.94864 3.27469 9.11685 3.12332 9.25291C2.97196 9.38898 2.79206 9.48944 2.59683 9.54695L2.09839 9.69382C-0.698486 10.5173 -0.698486 14.4829 2.09839 15.3063L2.59683 15.4532C2.79206 15.5107 2.97196 15.6112 3.12332 15.7472C3.27469 15.8833 3.39369 16.0515 3.4716 16.2395C3.5495 16.4276 3.58435 16.6307 3.57357 16.8339C3.5628 17.0371 3.50668 17.2354 3.40933 17.4141L3.15933 17.8704C1.76558 20.4329 4.56714 23.236 7.12964 21.8391L7.58589 21.5907C7.76463 21.4933 7.96288 21.4372 8.16613 21.4265C8.36938 21.4157 8.57246 21.4505 8.76048 21.5284C8.94851 21.6063 9.11673 21.7253 9.25279 21.8767C9.38885 22.0281 9.48932 22.208 9.54683 22.4032L9.6937 22.9016C10.5171 25.6985 14.4828 25.6985 15.3062 22.9016L15.4531 22.4032C15.5106 22.208 15.611 22.0281 15.7471 21.8767C15.8832 21.7253 16.0514 21.6063 16.2394 21.5284C16.4274 21.4505 16.6305 21.4157 16.8338 21.4265C17.037 21.4372 17.2353 21.4933 17.414 21.5907L17.8703 21.8407C20.4328 23.236 23.2359 20.4313 21.839 17.8704L21.5906 17.4141C21.4932 17.2354 21.4371 17.0371 21.4263 16.8339C21.4156 16.6307 21.4504 16.4276 21.5283 16.2395C21.6062 16.0515 21.7252 15.8833 21.8766 15.7472C22.0279 15.6112 22.2078 15.5107 22.4031 15.4532L22.9015 15.3063C25.6984 14.4829 25.6984 10.5173 22.9015 9.69382L22.4031 9.54695C22.2078 9.48944 22.0279 9.38898 21.8766 9.25291C21.7252 9.11685 21.6062 8.94864 21.5283 8.76061C21.4504 8.57258 21.4156 8.3695 21.4263 8.16625C21.4371 7.96301 21.4932 7.76475 21.5906 7.58601L21.8406 7.12976C23.2359 4.56726 20.4312 1.7657 17.8703 3.16101L17.414 3.40945C17.2353 3.5068 17.037 3.56292 16.8338 3.57369C16.6305 3.58447 16.4274 3.54963 16.2394 3.47172C16.0514 3.39381 15.8832 3.27481 15.7471 3.12345C15.611 2.97208 15.5106 2.79219 15.4531 2.59695L15.3062 2.09851ZM11.1921 2.5407C11.5765 1.23601 13.4234 1.23601 13.8078 2.5407L13.9546 3.03914C14.0781 3.45802 14.2938 3.84396 14.5858 4.16867C14.8778 4.49337 15.2388 4.74861 15.6423 4.91567C16.0457 5.08272 16.4815 5.15737 16.9176 5.13412C17.3537 5.11087 17.779 4.99033 18.1625 4.78132L18.6171 4.53132C19.8109 3.88289 21.1171 5.18757 20.4671 6.38289L20.2187 6.83914C20.01 7.22262 19.8898 7.64793 19.8668 8.08391C19.8438 8.51989 19.9186 8.95549 20.0858 9.3588C20.253 9.7621 20.5083 10.1229 20.833 10.4147C21.1578 10.7066 21.5436 10.922 21.9625 11.0454L22.4593 11.1923C23.764 11.5766 23.764 13.4235 22.4593 13.8079L21.9609 13.9548C21.542 14.0782 21.1561 14.2939 20.8314 14.5859C20.5067 14.8779 20.2514 15.2389 20.0844 15.6424C19.9173 16.0459 19.8427 16.4816 19.8659 16.9177C19.8892 17.3538 20.0097 17.7791 20.2187 18.1626L20.4687 18.6173C21.1171 19.811 19.8125 21.1173 18.6171 20.4673L18.1625 20.2188C17.7789 20.0098 17.3535 19.8894 16.9173 19.8662C16.4811 19.8431 16.0453 19.9178 15.6418 20.0851C15.2383 20.2523 14.8773 20.5077 14.5854 20.8326C14.2934 21.1574 14.0779 21.5436 13.9546 21.9626L13.8078 22.4594C13.4234 23.7641 11.5765 23.7641 11.1921 22.4594L11.0453 21.961C10.9217 21.5423 10.7061 21.1566 10.4142 20.8321C10.1223 20.5075 9.7615 20.2524 9.35822 20.0854C8.95493 19.9183 8.51939 19.8436 8.0835 19.8667C7.6476 19.8898 7.22239 20.0101 6.83901 20.2188L6.38276 20.4688C5.18901 21.1173 3.88276 19.8126 4.53276 18.6173L4.7812 18.1626C4.9905 17.7791 5.11128 17.3536 5.13468 16.9173C5.15808 16.481 5.0835 16.0451 4.91643 15.6414C4.74935 15.2377 4.49401 14.8765 4.16914 14.5844C3.84427 14.2923 3.45812 14.0766 3.03901 13.9532L2.54058 13.8063C1.23589 13.422 1.23589 11.5751 2.54058 11.1907L3.03901 11.0438C3.45746 10.9202 3.84298 10.7047 4.16736 10.4129C4.49174 10.1211 4.74677 9.76043 4.91378 9.35735C5.0808 8.95427 5.15557 8.51894 5.13263 8.08323C5.10969 7.64752 4.98962 7.22245 4.7812 6.83914L4.5312 6.38289C3.88276 5.18914 5.18745 3.88289 6.38276 4.53289L6.83901 4.78132C7.22239 4.99004 7.6476 5.11034 8.0835 5.13344C8.51939 5.15653 8.95493 5.08182 9.35822 4.91479C9.7615 4.74775 10.1223 4.49262 10.4142 4.16807C10.7061 3.84353 10.9217 3.4578 11.0453 3.03914L11.1921 2.5407Z" fill="#A2A2A2"/>
</g>
<defs>
<clipPath id="clip0_34_205">
<rect width="25" height="25" fill="white"/>
</clipPath>
</defs>
</svg>
